<!--?xml version="1.0" standalone="no"?-->
              <svg id="sw-js-blob-svg" viewBox="0 0 100 100" xmlns="http://www.w3.org/2000/svg" version="1.1">
                    <defs> 
                        <linearGradient id="sw-gradient" x1="0" x2="1" y1="1" y2="0">
                            <stop id="stop1" stop-color="rgba(248, 117, 55, 1)" offset="0%"></stop>
                            <stop id="stop2" stop-color="rgba(251, 168, 31, 1)" offset="100%"></stop>
                        </linearGradient>
                    </defs>
                <path fill="url(#sw-gradient)" d="M21.4,-35.9C28.1,-33.3,34.1,-28.2,37.5,-21.8C41,-15.4,41.8,-7.7,40.8,-0.6C39.7,6.5,36.7,13,32.8,18.5C28.8,23.9,23.9,28.4,18.3,32.8C12.7,37.3,6.3,41.7,-0.2,42.1C-6.8,42.5,-13.6,38.9,-20.4,35.2C-27.2,31.4,-34,27.5,-37.2,21.6C-40.5,15.7,-40.2,7.8,-39.5,0.4C-38.9,-7.1,-37.8,-14.1,-34.7,-20.2C-31.5,-26.4,-26.4,-31.6,-20.3,-34.6C-14.2,-37.6,-7.1,-38.4,0.1,-38.6C7.4,-38.9,14.7,-38.6,21.4,-35.9Z" width="100%" height="100%" transform="translate(50 50)" stroke-width="0" style="transition: all 0.3s ease 0s;"></path>
              </svg>