<svg xmlns="http://www.w3.org/2000/svg" xmlns:xlink="http://www.w3.org/1999/xlink" id="Layer_1" x="0px" y="0px" viewBox="0 0 190 49.5" style="enable-background:new 0 0 190 49.5;" xml:space="preserve"><style type="text/css">	.st0{opacity:0.5;fill-rule:evenodd;clip-rule:evenodd;fill:#00B0FF;}	.st1{fill:#00B0FF;}	.st2{fill:#FFFFFF;}	.st3{fill-rule:evenodd;clip-rule:evenodd;fill:#00B0FF;}</style><path class="st0" d="M180,19.8c0,2.3-1.8,4.1-4.1,4.2c0,0-0.1,0-0.1,0h-10.8c-2.3,0-4.2,1.9-4.2,4.2v-9.1c0-2.3,1.9-4.2,4.2-4.2 h10.8c2.3,0,4.2,1.9,4.2,4.2V19.8z"></path><g>	<path class="st1" d="M5.8,13.1c-0.1,0-0.2,0-0.3-0.1s-0.1-0.2-0.1-0.3V1.5c0-0.1,0-0.2,0.1-0.3s0.2-0.1,0.3-0.1h5  c0.9,0,1.7,0.1,2.3,0.4c0.6,0.3,1,0.7,1.3,1.2c0.3,0.5,0.4,1.1,0.4,1.7c0,0.4-0.1,0.8-0.2,1.1c-0.2,0.3-0.3,0.6-0.6,0.8  s-0.4,0.4-0.7,0.5c0.4,0.2,0.8,0.5,1.2,1C14.8,8.3,15,8.9,15,9.5c0,0.7-0.2,1.3-0.5,1.8s-0.8,1-1.4,1.3c-0.6,0.3-1.4,0.5-2.2,0.5  H5.8z M7.7,6h2.7c0.6,0,1.1-0.1,1.4-0.4c0.3-0.3,0.5-0.7,0.5-1.1c0-0.5-0.2-0.9-0.5-1.1C11.5,3,11,2.9,10.4,2.9H7.7V6z M7.7,11.3  h2.9c0.6,0,1.1-0.2,1.4-0.5c0.3-0.3,0.5-0.7,0.5-1.2c0-0.5-0.2-0.9-0.5-1.3c-0.3-0.3-0.8-0.5-1.4-0.5H7.7V11.3z"></path>	<path class="st1" d="M20.4,13.3c-0.7,0-1.3-0.2-1.8-0.5c-0.5-0.3-0.9-0.8-1.2-1.3S17,10.2,17,9.4V4.6c0-0.1,0-0.2,0.1-0.3  s0.2-0.1,0.3-0.1h1.5c0.1,0,0.2,0,0.3,0.1c0.1,0.1,0.1,0.2,0.1,0.3v4.7c0,1.4,0.6,2.1,1.9,2.1c0.6,0,1.1-0.2,1.4-0.6  c0.3-0.4,0.5-0.9,0.5-1.6V4.6c0-0.1,0-0.2,0.1-0.3c0.1-0.1,0.2-0.1,0.3-0.1h1.5c0.1,0,0.2,0,0.3,0.1c0.1,0.1,0.1,0.2,0.1,0.3v8.1  c0,0.1,0,0.2-0.1,0.3c-0.1,0.1-0.2,0.1-0.3,0.1h-1.4c-0.1,0-0.2,0-0.3-0.1c-0.1-0.1-0.1-0.2-0.1-0.3V12c-0.3,0.4-0.7,0.7-1.2,0.9  C21.7,13.2,21.1,13.3,20.4,13.3z"></path>	<path class="st1" d="M31.3,13.3c-0.7,0-1.3-0.1-1.8-0.2c-0.5-0.2-0.9-0.4-1.2-0.6s-0.5-0.5-0.7-0.7s-0.2-0.4-0.2-0.6  c0-0.1,0-0.2,0.1-0.3s0.2-0.1,0.3-0.1h1.4c0,0,0.1,0,0.1,0c0,0,0.1,0,0.1,0.1c0.1,0.1,0.3,0.3,0.5,0.4c0.2,0.1,0.4,0.3,0.6,0.4  c0.2,0.1,0.5,0.1,0.9,0.1c0.4,0,0.8-0.1,1.1-0.3c0.3-0.2,0.5-0.4,0.5-0.8c0-0.2-0.1-0.4-0.2-0.6c-0.1-0.1-0.4-0.3-0.7-0.4  s-0.9-0.2-1.5-0.4c-0.6-0.1-1.2-0.3-1.6-0.6c-0.4-0.2-0.7-0.5-0.9-0.9c-0.2-0.3-0.3-0.7-0.3-1.2c0-0.4,0.1-0.9,0.4-1.3  c0.3-0.4,0.7-0.7,1.2-1c0.5-0.3,1.2-0.4,2-0.4c0.6,0,1.2,0.1,1.6,0.2c0.5,0.2,0.8,0.3,1.1,0.6c0.3,0.2,0.5,0.5,0.7,0.7  c0.2,0.2,0.2,0.4,0.3,0.6c0,0.1,0,0.2-0.1,0.3c-0.1,0.1-0.2,0.1-0.3,0.1h-1.3c-0.1,0-0.1,0-0.2,0c0,0-0.1-0.1-0.1-0.1  c-0.1-0.1-0.3-0.2-0.4-0.4c-0.1-0.1-0.3-0.2-0.5-0.3c-0.2-0.1-0.5-0.1-0.8-0.1c-0.4,0-0.8,0.1-1,0.3C30,6,29.9,6.3,29.9,6.6  c0,0.2,0.1,0.4,0.2,0.5c0.1,0.1,0.3,0.3,0.7,0.4c0.3,0.1,0.8,0.3,1.5,0.4C33,8,33.6,8.2,34,8.5c0.5,0.3,0.8,0.6,1,0.9  s0.3,0.7,0.3,1.2c0,0.5-0.2,1-0.5,1.4s-0.8,0.7-1.3,1C32.9,13.1,32.2,13.3,31.3,13.3z"></path>	<path class="st1" d="M37.6,2.7c-0.1,0-0.2,0-0.3-0.1c-0.1-0.1-0.1-0.2-0.1-0.3V1c0-0.1,0-0.2,0.1-0.3c0.1-0.1,0.2-0.1,0.3-0.1h1.6  c0.1,0,0.2,0,0.3,0.1s0.1,0.2,0.1,0.3v1.2c0,0.1,0,0.2-0.1,0.3c-0.1,0.1-0.2,0.1-0.3,0.1H37.6z M37.6,13.1c-0.1,0-0.2,0-0.3-0.1  s-0.1-0.2-0.1-0.3V4.6c0-0.1,0-0.2,0.1-0.3s0.2-0.1,0.3-0.1h1.4c0.1,0,0.2,0,0.3,0.1c0.1,0.1,0.1,0.2,0.1,0.3v8.1  c0,0.1,0,0.2-0.1,0.3c-0.1,0.1-0.2,0.1-0.3,0.1H37.6z"></path>	<path class="st1" d="M42.3,13.1c-0.1,0-0.2,0-0.3-0.1s-0.1-0.2-0.1-0.3V4.6c0-0.1,0-0.2,0.1-0.3s0.2-0.1,0.3-0.1h1.4  c0.1,0,0.2,0,0.3,0.1s0.1,0.2,0.1,0.3v0.7c0.3-0.4,0.7-0.7,1.1-0.9S46.3,4,47,4c0.7,0,1.3,0.2,1.8,0.5c0.5,0.3,0.9,0.8,1.2,1.3  c0.3,0.6,0.4,1.3,0.4,2.1v4.8c0,0.1,0,0.2-0.1,0.3s-0.2,0.1-0.3,0.1h-1.5c-0.1,0-0.2,0-0.3-0.1s-0.1-0.2-0.1-0.3V8  c0-0.7-0.2-1.2-0.5-1.6c-0.3-0.4-0.8-0.6-1.4-0.6c-0.6,0-1.1,0.2-1.4,0.6c-0.4,0.4-0.5,0.9-0.5,1.6v4.7c0,0.1,0,0.2-0.1,0.3  s-0.2,0.1-0.3,0.1H42.3z"></path>	<path class="st1" d="M56.7,13.3c-1.3,0-2.3-0.4-3-1.1s-1.1-1.8-1.2-3.1c0-0.1,0-0.3,0-0.4s0-0.3,0-0.4c0-0.9,0.2-1.6,0.6-2.2  c0.3-0.6,0.8-1.1,1.5-1.5S55.8,4,56.7,4c0.9,0,1.7,0.2,2.3,0.6c0.6,0.4,1.1,0.9,1.4,1.6c0.3,0.7,0.5,1.5,0.5,2.4v0.4  c0,0.1,0,0.2-0.1,0.3s-0.2,0.1-0.3,0.1h-5.7c0,0.1,0,0.1,0,0.1c0,0.4,0.1,0.8,0.2,1.1c0.1,0.3,0.4,0.6,0.6,0.8  c0.3,0.2,0.6,0.3,1,0.3c0.3,0,0.6,0,0.8-0.1c0.2-0.1,0.4-0.2,0.5-0.3c0.1-0.1,0.2-0.2,0.3-0.3c0.1-0.1,0.2-0.2,0.2-0.2  c0.1,0,0.2,0,0.3,0h1.5c0.1,0,0.2,0,0.3,0.1c0.1,0.1,0.1,0.2,0.1,0.3c0,0.2-0.1,0.4-0.3,0.7c-0.2,0.3-0.4,0.5-0.8,0.8  c-0.3,0.3-0.7,0.5-1.2,0.6S57.3,13.3,56.7,13.3z M54.8,7.9h3.8V7.8c0-0.4-0.1-0.8-0.2-1.2S58,6,57.7,5.8c-0.3-0.2-0.6-0.3-1-0.3  c-0.4,0-0.7,0.1-1,0.3C55.3,6,55.1,6.3,55,6.6S54.8,7.4,54.8,7.9L54.8,7.9z"></path>	<path class="st1" d="M66.3,13.3c-0.7,0-1.3-0.1-1.8-0.2c-0.5-0.2-0.9-0.4-1.2-0.6s-0.5-0.5-0.7-0.7s-0.2-0.4-0.2-0.6  c0-0.1,0-0.2,0.1-0.3s0.2-0.1,0.3-0.1h1.4c0,0,0.1,0,0.1,0c0,0,0.1,0,0.1,0.1c0.1,0.1,0.3,0.3,0.5,0.4c0.2,0.1,0.4,0.3,0.6,0.4  c0.2,0.1,0.5,0.1,0.9,0.1c0.4,0,0.8-0.1,1.1-0.3c0.3-0.2,0.5-0.4,0.5-0.8c0-0.2-0.1-0.4-0.2-0.6c-0.1-0.1-0.4-0.3-0.7-0.4  s-0.9-0.2-1.5-0.4c-0.6-0.1-1.2-0.3-1.6-0.6c-0.4-0.2-0.7-0.5-0.9-0.9c-0.2-0.3-0.3-0.7-0.3-1.2c0-0.4,0.1-0.9,0.4-1.3  c0.3-0.4,0.7-0.7,1.2-1c0.5-0.3,1.2-0.4,2-0.4c0.6,0,1.2,0.1,1.6,0.2c0.5,0.2,0.8,0.3,1.1,0.6c0.3,0.2,0.5,0.5,0.7,0.7  c0.2,0.2,0.2,0.4,0.3,0.6c0,0.1,0,0.2-0.1,0.3c-0.1,0.1-0.2,0.1-0.3,0.1h-1.3c-0.1,0-0.1,0-0.2,0c0,0-0.1-0.1-0.1-0.1  c-0.1-0.1-0.3-0.2-0.4-0.4c-0.1-0.1-0.3-0.2-0.5-0.3c-0.2-0.1-0.5-0.1-0.8-0.1c-0.4,0-0.8,0.1-1,0.3C65,6,64.9,6.3,64.9,6.6  c0,0.2,0.1,0.4,0.2,0.5c0.1,0.1,0.3,0.3,0.7,0.4c0.3,0.1,0.8,0.3,1.5,0.4C68,8,68.6,8.2,69,8.5c0.5,0.3,0.8,0.6,1,0.9  s0.3,0.7,0.3,1.2c0,0.5-0.2,1-0.5,1.4s-0.8,0.7-1.3,1C67.9,13.1,67.1,13.3,66.3,13.3z"></path>	<path class="st1" d="M75.6,13.3c-0.7,0-1.3-0.1-1.8-0.2c-0.5-0.2-0.9-0.4-1.2-0.6s-0.5-0.5-0.7-0.7s-0.2-0.4-0.2-0.6  c0-0.1,0-0.2,0.1-0.3s0.2-0.1,0.3-0.1h1.4c0,0,0.1,0,0.1,0c0,0,0.1,0,0.1,0.1c0.1,0.1,0.3,0.3,0.5,0.4c0.2,0.1,0.4,0.3,0.6,0.4  c0.2,0.1,0.5,0.1,0.9,0.1c0.4,0,0.8-0.1,1.1-0.3c0.3-0.2,0.5-0.4,0.5-0.8c0-0.2-0.1-0.4-0.2-0.6c-0.1-0.1-0.4-0.3-0.7-0.4  s-0.9-0.2-1.5-0.4c-0.6-0.1-1.2-0.3-1.6-0.6c-0.4-0.2-0.7-0.5-0.9-0.9c-0.2-0.3-0.3-0.7-0.3-1.2c0-0.4,0.1-0.9,0.4-1.3  c0.3-0.4,0.7-0.7,1.2-1c0.5-0.3,1.2-0.4,2-0.4c0.6,0,1.2,0.1,1.6,0.2c0.5,0.2,0.8,0.3,1.1,0.6C78.6,5,78.8,5.3,79,5.5  c0.2,0.2,0.2,0.4,0.3,0.6c0,0.1,0,0.2-0.1,0.3c-0.1,0.1-0.2,0.1-0.3,0.1h-1.3c-0.1,0-0.1,0-0.2,0c0,0-0.1-0.1-0.1-0.1  C77.2,6.3,77,6.2,76.9,6c-0.1-0.1-0.3-0.2-0.5-0.3c-0.2-0.1-0.5-0.1-0.8-0.1c-0.4,0-0.8,0.1-1,0.3c-0.2,0.2-0.3,0.4-0.3,0.7  c0,0.2,0.1,0.4,0.2,0.5c0.1,0.1,0.3,0.3,0.7,0.4c0.3,0.1,0.8,0.3,1.5,0.4c0.8,0.1,1.4,0.3,1.8,0.6c0.5,0.3,0.8,0.6,1,0.9  s0.3,0.7,0.3,1.2c0,0.5-0.2,1-0.5,1.4s-0.8,0.7-1.3,1C77.2,13.1,76.5,13.3,75.6,13.3z"></path></g><g>	<path class="st2" d="M2.6,45.7c-0.2,0-0.3-0.1-0.4-0.2c-0.1-0.1-0.2-0.3-0.2-0.4c0-0.1,0-0.2,0.1-0.3l7.2-19.2  c0.1-0.2,0.2-0.4,0.3-0.5C9.7,25,9.9,25,10.2,25h3.2c0.3,0,0.5,0.1,0.7,0.2c0.2,0.1,0.3,0.3,0.4,0.5l7.2,19.2c0,0.1,0,0.2,0,0.3  c0,0.2-0.1,0.3-0.2,0.4c-0.1,0.1-0.3,0.2-0.4,0.2h-2.6c-0.3,0-0.5-0.1-0.6-0.2c-0.1-0.1-0.2-0.3-0.3-0.4l-1.4-3.6H7.4L6,45.2  c0,0.1-0.1,0.2-0.3,0.4c-0.1,0.1-0.3,0.2-0.6,0.2H2.6z M8.4,38.1h6.7L11.8,29L8.4,38.1z"></path>	<path class="st2" d="M25.4,45.7c-0.2,0-0.4-0.1-0.5-0.2c-0.1-0.1-0.2-0.3-0.2-0.5V25.7c0-0.2,0.1-0.4,0.2-0.5  C25,25,25.2,25,25.4,25h7.2c2,0,3.6,0.3,4.9,0.9c1.3,0.6,2.3,1.5,2.9,2.7c0.7,1.2,1,2.7,1,4.4c0,0.9,0.1,1.6,0.1,2.3s0,1.4-0.1,2.3  c0,1.8-0.4,3.4-1,4.6s-1.6,2.1-2.9,2.7c-1.3,0.6-2.9,0.9-4.9,0.9H25.4z M28.8,42.3h3.8c1.1,0,2-0.2,2.7-0.5  c0.7-0.3,1.2-0.8,1.5-1.5c0.3-0.7,0.5-1.6,0.5-2.8c0-0.6,0-1.1,0-1.6c0-0.4,0-0.9,0-1.3c0-0.4,0-1,0-1.5c0-1.6-0.4-2.8-1.2-3.6  c-0.8-0.8-2-1.2-3.7-1.2h-3.7V42.3z"></path>	<path class="st2" d="M51.3,45.7c-0.3,0-0.6-0.1-0.7-0.2c-0.2-0.2-0.3-0.4-0.4-0.6l-6.4-19.1c0-0.1-0.1-0.2-0.1-0.3  c0-0.2,0.1-0.3,0.2-0.4c0.1-0.1,0.3-0.2,0.4-0.2H47c0.3,0,0.5,0.1,0.6,0.2s0.2,0.3,0.3,0.4l5,15.3l5-15.3c0.1-0.1,0.2-0.3,0.3-0.4  c0.1-0.1,0.4-0.2,0.6-0.2h2.6c0.2,0,0.3,0.1,0.4,0.2c0.1,0.1,0.2,0.3,0.2,0.4c0,0.1,0,0.2-0.1,0.3l-6.4,19.1  c-0.1,0.2-0.2,0.4-0.4,0.6s-0.4,0.2-0.7,0.2H51.3z"></path>	<path class="st2" d="M66.3,45.7c-0.2,0-0.4-0.1-0.5-0.2c-0.1-0.1-0.2-0.3-0.2-0.5V25.7c0-0.2,0.1-0.4,0.2-0.5  c0.1-0.1,0.3-0.2,0.5-0.2h2.8c0.2,0,0.4,0.1,0.5,0.2s0.2,0.3,0.2,0.5V45c0,0.2-0.1,0.4-0.2,0.5c-0.1,0.1-0.3,0.2-0.5,0.2H66.3z"></path>	<path class="st2" d="M82,46c-1.8,0-3.4-0.3-4.6-0.8c-1.2-0.5-2.2-1.3-2.8-2.1c-0.6-0.9-1-1.8-1-2.8c0-0.2,0.1-0.3,0.2-0.4  s0.3-0.2,0.4-0.2h2.6c0.3,0,0.5,0.1,0.6,0.2c0.1,0.1,0.2,0.2,0.3,0.4c0.1,0.4,0.3,0.7,0.7,1.1c0.3,0.4,0.8,0.7,1.4,0.9  c0.6,0.2,1.3,0.4,2.2,0.4c1.4,0,2.5-0.2,3.2-0.7c0.7-0.5,1.1-1.1,1.1-1.9c0-0.6-0.2-1-0.6-1.4c-0.4-0.3-1-0.7-1.7-1  c-0.8-0.3-1.8-0.6-3.1-0.9c-1.5-0.4-2.7-0.8-3.7-1.3s-1.8-1.1-2.3-1.9c-0.5-0.8-0.8-1.8-0.8-2.9c0-1.1,0.3-2.2,0.9-3.1  s1.5-1.6,2.7-2.1c1.2-0.5,2.5-0.8,4.1-0.8c1.3,0,2.4,0.2,3.4,0.5c1,0.3,1.8,0.8,2.5,1.4s1.2,1.2,1.5,1.8c0.3,0.6,0.5,1.3,0.5,1.9  c0,0.2-0.1,0.3-0.2,0.4c-0.1,0.1-0.3,0.2-0.5,0.2h-2.8c-0.2,0-0.3,0-0.5-0.1c-0.2-0.1-0.3-0.2-0.4-0.4c-0.1-0.6-0.5-1.1-1.2-1.6  s-1.5-0.7-2.5-0.7c-1.1,0-1.9,0.2-2.6,0.6s-1,1-1,1.8c0,0.6,0.2,1,0.5,1.4s0.9,0.7,1.6,1s1.7,0.6,2.9,0.9c1.7,0.4,3.1,0.8,4.1,1.3  c1.1,0.5,1.9,1.1,2.3,1.9c0.5,0.8,0.7,1.7,0.7,2.9c0,1.3-0.4,2.4-1.1,3.3c-0.7,0.9-1.7,1.6-3,2.1C85.1,45.8,83.7,46,82,46z"></path>	<path class="st2" d="M102.1,46c-1.8,0-3.3-0.3-4.5-0.9c-1.3-0.6-2.3-1.5-3-2.7c-0.7-1.2-1.1-2.7-1.2-4.6c0-0.9,0-1.7,0-2.5  s0-1.7,0-2.6c0.1-1.8,0.5-3.3,1.2-4.5c0.7-1.2,1.7-2.1,3-2.7c1.3-0.6,2.8-0.9,4.5-0.9c1.7,0,3.2,0.3,4.5,0.9s2.3,1.5,3,2.7  c0.7,1.2,1.1,2.7,1.2,4.5c0,0.9,0.1,1.7,0.1,2.6s0,1.7-0.1,2.5c-0.1,1.8-0.4,3.3-1.2,4.6c-0.7,1.2-1.7,2.1-3,2.7  C105.4,45.7,103.9,46,102.1,46z M102.1,42.6c1.3,0,2.3-0.4,3.1-1.1c0.8-0.8,1.2-2,1.3-3.7c0-0.9,0.1-1.7,0.1-2.4  c0-0.7,0-1.5-0.1-2.4c0-1.1-0.3-2.1-0.6-2.8c-0.4-0.7-0.9-1.2-1.6-1.6c-0.7-0.3-1.4-0.5-2.3-0.5c-0.8,0-1.6,0.2-2.2,0.5  c-0.7,0.3-1.2,0.9-1.6,1.6c-0.4,0.7-0.6,1.7-0.6,2.8c0,0.9,0,1.6,0,2.4c0,0.7,0,1.5,0,2.4c0.1,1.7,0.5,3,1.3,3.7  C99.8,42.2,100.8,42.6,102.1,42.6z"></path>	<path class="st2" d="M115.8,45.7c-0.2,0-0.4-0.1-0.5-0.2c-0.1-0.1-0.2-0.3-0.2-0.5V25.7c0-0.2,0.1-0.4,0.2-0.5  c0.1-0.1,0.3-0.2,0.5-0.2h7.7c2.4,0,4.3,0.6,5.7,1.7c1.4,1.1,2.1,2.7,2.1,4.8c0,1.5-0.4,2.7-1.1,3.7c-0.7,1-1.7,1.7-2.9,2.1  l4.3,7.6c0.1,0.1,0.1,0.2,0.1,0.3c0,0.2-0.1,0.3-0.2,0.4c-0.1,0.1-0.3,0.2-0.4,0.2h-2.7c-0.3,0-0.6-0.1-0.8-0.3  c-0.2-0.2-0.3-0.4-0.4-0.5l-3.8-7h-4.1V45c0,0.2-0.1,0.4-0.2,0.5c-0.1,0.1-0.3,0.2-0.5,0.2H115.8z M119.2,34.5h4.2  c1.2,0,2.1-0.3,2.7-0.8c0.6-0.5,0.9-1.3,0.9-2.3c0-1-0.3-1.8-0.9-2.3c-0.6-0.6-1.5-0.8-2.7-0.8h-4.2V34.5z"></path>	<path class="st2" d="M142.5,46c-1.8,0-3.4-0.3-4.6-0.8c-1.2-0.5-2.2-1.3-2.8-2.1c-0.6-0.9-1-1.8-1-2.8c0-0.2,0.1-0.3,0.2-0.4  s0.3-0.2,0.4-0.2h2.6c0.3,0,0.5,0.1,0.6,0.2c0.1,0.1,0.2,0.2,0.3,0.4c0.1,0.4,0.3,0.7,0.7,1.1c0.3,0.4,0.8,0.7,1.4,0.9  c0.6,0.2,1.3,0.4,2.2,0.4c1.4,0,2.5-0.2,3.2-0.7c0.7-0.5,1.1-1.1,1.1-1.9c0-0.6-0.2-1-0.6-1.4c-0.4-0.3-1-0.7-1.7-1  c-0.8-0.3-1.8-0.6-3.1-0.9c-1.5-0.4-2.7-0.8-3.7-1.3s-1.8-1.1-2.3-1.9c-0.5-0.8-0.8-1.8-0.8-2.9c0-1.1,0.3-2.2,0.9-3.1  s1.5-1.6,2.7-2.1c1.2-0.5,2.5-0.8,4.1-0.8c1.3,0,2.4,0.2,3.4,0.5c1,0.3,1.8,0.8,2.5,1.4s1.2,1.2,1.5,1.8c0.3,0.6,0.5,1.3,0.5,1.9  c0,0.2-0.1,0.3-0.2,0.4c-0.1,0.1-0.3,0.2-0.5,0.2h-2.8c-0.2,0-0.3,0-0.5-0.1c-0.2-0.1-0.3-0.2-0.4-0.4c-0.1-0.6-0.5-1.1-1.2-1.6  s-1.5-0.7-2.5-0.7c-1.1,0-1.9,0.2-2.6,0.6s-1,1-1,1.8c0,0.6,0.2,1,0.5,1.4s0.9,0.7,1.6,1s1.7,0.6,2.9,0.9c1.7,0.4,3.1,0.8,4.1,1.3  c1.1,0.5,1.9,1.1,2.3,1.9c0.5,0.8,0.7,1.7,0.7,2.9c0,1.3-0.4,2.4-1.1,3.3c-0.7,0.9-1.7,1.6-3,2.1C145.7,45.8,144.2,46,142.5,46z"></path></g><path class="st3" d="M183.8,1.5h-19.1c-2.3,0-4.2,1.9-4.2,4.2v9.1c0-2.3,1.9-4.2,4.2-4.2h19.1c0,0,0.1,0,0.1,0 c2.2-0.1,4.1-1.9,4.1-4.2V5.7C188,3.4,186.1,1.5,183.8,1.5z"></path></svg>