<svg width="238" height="64" viewBox="0 0 238 64" fill="none" xmlns="http://www.w3.org/2000/svg">
<path d="M115.053 39.6993H102.535L99.3921 49.1732C99.3456 49.4567 99.155 49.6009 98.8203 49.6009H93.1583C92.7771 49.6009 92.6842 49.4103 92.7771 49.0756L104.013 16.9908C104.25 16.4655 104.441 15.4196 104.487 13.946C104.487 13.7089 104.631 13.6113 104.868 13.6113H112.627C112.817 13.6113 112.961 13.7042 113.054 13.8948L125.573 49.1221C125.666 49.4567 125.573 49.5962 125.238 49.5962H118.861C118.623 49.5962 118.433 49.4521 118.335 49.215L115.053 39.6993ZM103.915 34.465H113.626C113.482 33.9397 112.72 31.6572 111.339 27.6082C110.005 23.5128 109.103 20.705 108.675 19.1849H108.629C108.248 21.0397 106.676 26.1346 103.915 34.465Z" fill="#E63523"/>
<path d="M140.807 50.1259C136.618 50.1259 133.285 48.9824 130.715 46.7464C128.19 44.4593 126.954 41.0797 126.954 36.6542C126.954 32.6564 128.288 29.3699 130.998 26.7527C133.713 24.1355 137.376 22.8014 141.946 22.8014C143.182 22.8014 144.233 22.8943 144.99 23.1361V11.045C144.99 10.8079 145.135 10.6638 145.372 10.6638H151.513C151.75 10.6638 151.847 10.7568 151.847 10.9985V43.5574C151.847 44.1757 151.894 45.4122 151.991 47.2206C152.038 47.4576 151.898 47.6482 151.657 47.6947C148.282 49.3171 144.66 50.1259 140.807 50.1259ZM144.949 44.5058V28.1287C144.14 27.7475 143.094 27.5569 141.806 27.5569C139.426 27.5569 137.52 28.3193 136.093 29.8905C134.666 31.4152 133.95 33.5536 133.95 36.366C133.95 39.3179 134.666 41.5074 136.093 42.9345C137.52 44.3617 139.328 45.0775 141.569 45.0775C143.043 45.1287 144.14 44.9381 144.949 44.5058Z" fill="#E63523"/>
<path d="M169.224 22.8014C173.319 22.8014 176.555 24.0845 178.888 26.6551C181.222 29.2258 182.412 32.4613 182.412 36.3661C182.412 40.601 181.175 43.9805 178.749 46.4583C176.322 48.8848 173.082 50.1214 169.135 50.1214C164.756 50.1214 161.47 48.7872 159.187 46.17C156.9 43.5064 155.808 40.2663 155.808 36.4591C155.808 32.4613 157.044 29.1747 159.471 26.604C161.939 24.0845 165.179 22.8014 169.224 22.8014ZM168.94 27.5151C167.085 27.5151 165.561 28.324 164.417 29.8952C163.273 31.4665 162.702 33.6095 162.702 36.3708C162.702 39.132 163.273 41.3215 164.417 42.9392C165.561 44.557 167.178 45.3658 169.224 45.3658C170.985 45.3658 172.459 44.6035 173.649 43.1298C174.839 41.6051 175.411 39.3691 175.411 36.4172C175.411 33.7024 174.886 31.5641 173.793 29.9417C172.747 28.324 171.13 27.5151 168.94 27.5151Z" fill="#E63523"/>
<path d="M186.693 10.6638H192.736C193.02 10.6638 193.164 10.8079 193.164 11.0915V23.8008C194.926 23.1361 196.781 22.8478 198.78 22.8478C202.54 22.8478 205.539 24.0379 207.775 26.4645C210.062 28.8446 211.154 31.9405 211.154 35.7013C211.154 40.2244 209.774 43.748 206.966 46.3652C204.158 48.9359 200.825 50.2189 196.92 50.2189C192.876 50.2189 189.445 49.5542 186.591 48.1735C186.354 48.0805 186.256 47.8899 186.256 47.6482V11.0404C186.312 10.7568 186.41 10.6638 186.693 10.6638ZM204.163 36.3195C204.163 33.5583 203.544 31.4664 202.257 30.0346C201.02 28.6075 199.351 27.8916 197.213 27.8916C195.642 27.8916 194.261 28.1752 193.118 28.7469V44.5011C194.164 45.0729 195.544 45.3565 197.259 45.3565C199.165 45.3565 200.783 44.5941 202.113 43.0229C203.498 41.4609 204.163 39.2249 204.163 36.3195Z" fill="#E63523"/>
<path d="M231.822 37.7003H220.967C221.014 39.8898 221.683 41.6516 223.013 42.9857C224.393 44.2687 226.346 44.9382 228.963 44.9382C231.534 44.9382 233.77 44.5105 235.676 43.604C235.913 43.511 236.01 43.604 236.01 43.8876V47.9319C236.01 48.2666 235.917 48.4572 235.676 48.5966C233.389 49.6426 230.678 50.1679 227.536 50.1679C225.109 50.1679 223.013 49.7867 221.205 49.0243C219.396 48.2619 218.016 47.2625 217.016 45.9283C216.017 44.6453 215.254 43.2135 214.729 41.6934C214.255 40.1222 214.013 38.5045 214.013 36.7426C214.013 32.8378 215.157 29.5094 217.393 26.8411C219.68 24.1263 222.818 22.7968 226.769 22.7968C230.53 22.7968 233.337 23.8939 235.192 26.1298C237.047 28.3658 238 30.983 238 33.986C238 35.0831 237.907 36.129 237.763 37.082C237.716 37.3191 237.572 37.4632 237.335 37.5097C236.345 37.6538 234.486 37.7003 231.822 37.7003ZM220.921 33.5118H228.587C230.302 33.5118 231.25 33.4654 231.441 33.4189C231.487 33.2748 231.487 33.0377 231.487 32.6565C231.487 31.2759 231.106 30.0858 230.297 28.9934C229.535 27.8963 228.298 27.3757 226.537 27.3757C224.821 27.3757 223.492 27.9475 222.539 29.1375C221.632 30.2764 221.112 31.75 220.921 33.5118Z" fill="#E63523"/>
<path d="M44.938 0H71.2585V63.0725L44.938 0Z" fill="#E63523"/>
<path d="M26.3716 0H0V63.0725L26.3716 0Z" fill="#E63523"/>
<path d="M35.6548 23.2292L52.4085 63.0725H41.4145L36.4172 50.3631H24.1356L35.6548 23.2292Z" fill="#E63523"/>
</svg>
